<?xml version="1.0" encoding="utf-8"?>
<!-- Svg Vector Icons : http://www.onlinewebfonts.com/icon -->
<!DOCTYPE svg PUBLIC "-//W3C//DTD SVG 1.1//EN" "http://www.w3.org/Graphics/SVG/1.1/DTD/svg11.dtd">
<svg version="1.1" xmlns="http://www.w3.org/2000/svg" xmlns:xlink="http://www.w3.org/1999/xlink" x="0px" y="0px" viewBox="0 0 1000 1000" enable-background="new 0 0 1000 1000" xml:space="preserve">
<metadata> Svg Vector Icons : http://www.onlinewebfonts.com/icon </metadata>
<g><path d="M317.9,554.4l-0.3,0.3c-0.5,0.7-0.7,0.8-0.7,1l-49.8,182.6c-2.5,9,0.1,18.5,6.7,25.1c6.4,6.3,16.3,8.7,25,6.4l184-49.6l0.3,0.1c0.5-0.1,0.8-0.3,1.2-0.7l484.9-484.9c13.4-13.4,20.6-31.7,20.6-51.8c0-22.8-9.7-45.7-26.8-62.6l-45.9-45.9c-16.9-16.9-39.9-26.8-62.9-26.8c-20.1,0-38.4,7.4-51.8,20.6L318.8,552.3C318.6,552.9,318.4,553.6,317.9,554.4z M843.1,108.5c9.4-9.4,27.3-8.5,38.1,2.1l45.9,45.9c5.7,5.7,9,13.4,9,21c-0.3,6.8-2.6,12.6-6.8,16.8l0,0l-51.9,51.9l-85.4-86.8L843.1,108.5z M749.9,201.6l85.6,86.9L478.5,645.3l-86.1-86.1L749.9,201.6z M358.5,598.1l80.1,80.2l-110,30.1L358.5,598.1z"/><path d="M956.1,388.3c-15.6,0-28.2,12.7-28.2,28.4v452.1c0,26.7-21.6,48.2-48.2,48.2H114.8c-26.7,0-48.2-21.6-48.2-48.2V130.8c0-26.7,21.6-48.2,48.2-48.2h492.6c15.6,0,28.2-12.7,28.2-28.2c0-15.6-12.7-28.2-28.2-28.2H109.6C54.7,26.3,10,71,10,125.9v748.2c0,54.9,44.7,99.6,99.6,99.6h775c54.9,0,99.6-44.7,99.6-99.6V416.5C984.3,400.9,971.7,388.3,956.1,388.3z"/></g>
</svg>